<?xml version="1.0"?>
<svg width="117" height="26" xmlns="http://www.w3.org/2000/svg" xmlns:svg="http://www.w3.org/2000/svg" xmlns:xlink="http://www.w3.org/1999/xlink">
 <defs>
  <path d="m252.14,44.04l-3.18,0l-5.41,-6.45l-5.4,6.45l-3.15,0l6.97,-8.34l-6.59,-7.84l3.17,0l4.99,5.95l4.97,-5.95l3.15,0l-6.54,7.83l7.02,8.35zm-35.73,-8.09a8.9,8.9 0 1 1 8.91,8.91a8.91,8.91 0 0 1 -8.91,-8.91zm2.93,-2.5a6.5,6.5 0 0 0 8.48,8.48a6.5,6.5 0 1 0 -8.48,-8.48zm-14.68,10.99l0.01,0l-0.01,0zm-6.47,-1.21l0,-23.49l2.43,0l0,8.52a8.98,8.98 0 0 1 4.05,-0.83c4.92,0 8.91,3.58 8.91,8.5s-4,8.5 -8.92,8.51c-4.98,0 -6.47,-1.21 -6.47,-1.21zm6.47,-13.37l0.01,0l-0.01,0zm-4.04,1.32l0,10.02a8.1,8.1 0 0 0 4.05,0.81c3.57,0 6.48,-2.5 6.48,-6.07c0,-3.58 -2.9,-6.08 -6.48,-6.08a7.17,7.17 0 0 0 -4.05,1.32zm-8.1,-11.44l0,24.3l-2.43,0l0,-24.3l2.43,0zm-8.1,0l0,24.3l-2.43,0l0,-24.3l2.43,0zm-9.4,3.62a2.02,2.02 0 0 1 0,-4.03a2.02,2.02 0 1 1 0,4.03zm-8.02,20.68l-8.5,-8.5l7.69,-7.7l3.44,0l-7.7,7.7l8.5,8.5l-3.43,0zm-10.94,0l0,-24.3l2.43,0l0,24.3l-2.43,0zm-12.22,0.4a11.21,11.21 0 0 1 -7.84,-3.52l1.72,-1.9c1.61,1.53 3.5,3.02 6.09,3.02c2.88,0 5.98,-1.62 5.98,-4.52c0,-2.4 -1.91,-3.97 -5.93,-5.21c-4.58,-1.4 -6.91,-3.3 -6.91,-6.87c0,-3.54 2.99,-6.44 7.25,-6.44c3.19,0 5.18,1.36 7.12,3.09l-1.69,1.88c-1.7,-1.51 -3.32,-2.53 -5.31,-2.53c-2.46,0 -4.9,1.59 -4.9,3.88c0,2.07 1.19,3.39 5.4,4.68c3.86,1.19 7.39,3.03 7.39,7.43c0,4.06 -3.23,7.01 -8.37,7.01zm32.48,-0.4l-2.43,0l0,-16.2l2.43,0l0,16.2z" id="a"/>
 </defs>
 <g class="layer">
  <title>Layer 1</title>
  <g id="svg_1">
   <use fill="#ffffff" id="svg_2" x="-136" xlink:href="#a" y="-19"/>
  </g>
 </g>
</svg>