<svg xmlns="http://www.w3.org/2000/svg" xmlns:xlink="http://www.w3.org/1999/xlink" width="117" height="26" viewBox="0 0 117 26"><defs><path id="a" d="M252.14 44.04h-3.18l-5.41-6.45-5.4 6.45H235l6.97-8.34-6.59-7.84h3.17l4.99 5.95 4.97-5.95h3.15l-6.54 7.83zm-35.73-8.09a8.9 8.9 0 1 1 8.91 8.91 8.91 8.91 0 0 1-8.91-8.91zm2.93-2.5a6.5 6.5 0 0 0 8.48 8.48 6.5 6.5 0 1 0-8.48-8.48zm-14.68 10.99h.01zm-6.47-1.21V19.74h2.43v8.52a8.98 8.98 0 0 1 4.05-.83c4.92 0 8.91 3.58 8.91 8.5s-4 8.5-8.92 8.51c-4.98 0-6.47-1.21-6.47-1.21zm6.47-13.37h.01zm-4.04 1.32V41.2a8.1 8.1 0 0 0 4.05.81c3.57 0 6.48-2.5 6.48-6.07 0-3.58-2.9-6.08-6.48-6.08a7.17 7.17 0 0 0-4.05 1.32zm-8.1-11.44v24.3h-2.43v-24.3zm-8.1 0v24.3h-2.43v-24.3zm-9.4 3.62a2.02 2.02 0 0 1 0-4.03 2.02 2.02 0 1 1 0 4.03zM167 44.04l-8.5-8.5 7.69-7.7h3.44l-7.7 7.7 8.5 8.5zm-10.94 0v-24.3h2.43v24.3zm-12.22.4a11.21 11.21 0 0 1-7.84-3.52l1.72-1.9c1.61 1.53 3.5 3.02 6.09 3.02 2.88 0 5.98-1.62 5.98-4.52 0-2.4-1.91-3.97-5.93-5.21-4.58-1.4-6.91-3.3-6.91-6.87 0-3.54 2.99-6.44 7.25-6.44 3.19 0 5.18 1.36 7.12 3.09l-1.69 1.88c-1.7-1.51-3.32-2.53-5.31-2.53-2.46 0-4.9 1.59-4.9 3.88 0 2.07 1.19 3.39 5.4 4.68 3.86 1.19 7.39 3.03 7.39 7.43 0 4.06-3.23 7.01-8.37 7.01zm32.48-.4h-2.43v-16.2h2.43z"/></defs><g transform="translate(-136 -19)"><use xlink:href="#a"/></g></svg>